<?xml version="1.0" encoding="UTF-8" standalone="no"?><svg xmlns="http://www.w3.org/2000/svg" xmlns:xlink="http://www.w3.org/1999/xlink" contentScriptType="application/ecmascript" contentStyleType="text/css" height="1401px" preserveAspectRatio="none" style="width:1284px;height:1401px;" version="1.1" viewBox="0 0 1284 1401" width="1284px" zoomAndPan="magnify"><defs><filter height="300%" id="f1qgs8k69yvj1a" width="300%" x="-1" y="-1"><feGaussianBlur result="blurOut" stdDeviation="2.0"/><feColorMatrix in="blurOut" result="blurOut2" type="matrix" values="0 0 0 0 0 0 0 0 0 0 0 0 0 0 0 0 0 0 .4 0"/><feOffset dx="4.0" dy="4.0" in="blurOut2" result="blurOut3"/><feBlend in="SourceGraphic" in2="blurOut3" mode="normal"/></filter></defs><g><!--MD5=[7283a9eed84464550b6d5ebf39c68b05]
class Mastermind--><rect codeLine="1" fill="#FEFECE" filter="url(#f1qgs8k69yvj1a)" height="60.8047" id="Mastermind" style="stroke:#A80036;stroke-width:1.5;" width="102" x="319" y="7"/><ellipse cx="334" cy="23" fill="#ADD1B2" rx="11" ry="11" style="stroke:#A80036;stroke-width:1.0;"/><path d="M336.3438,18.6719 C335.4063,18.2344 334.8125,18.0938 333.9375,18.0938 C331.3125,18.0938 329.3125,20.1719 329.3125,22.8906 L329.3125,24.0156 C329.3125,26.5938 331.4219,28.4844 334.3125,28.4844 C335.5313,28.4844 336.6875,28.1875 337.4375,27.6406 C338.0156,27.2344 338.3438,26.7813 338.3438,26.3906 C338.3438,25.9375 337.9531,25.5469 337.4844,25.5469 C337.2656,25.5469 337.0625,25.625 336.875,25.8125 C336.4219,26.2969 336.4219,26.2969 336.2344,26.3906 C335.8125,26.6563 335.125,26.7813 334.3594,26.7813 C332.3125,26.7813 331.0156,25.6875 331.0156,23.9844 L331.0156,22.8906 C331.0156,21.1094 332.2656,19.7969 334,19.7969 C334.5781,19.7969 335.1875,19.9531 335.6563,20.2031 C336.1406,20.4844 336.3125,20.7031 336.4063,21.1094 C336.4688,21.5156 336.5,21.6406 336.6406,21.7656 C336.7813,21.9063 337.0156,22.0156 337.2344,22.0156 C337.5,22.0156 337.7656,21.875 337.9375,21.6563 C338.0469,21.5 338.0781,21.3125 338.0781,20.8906 L338.0781,19.4688 C338.0781,19.0313 338.0625,18.9063 337.9688,18.75 C337.8125,18.4844 337.5313,18.3438 337.2344,18.3438 C336.9375,18.3438 336.7344,18.4375 336.5156,18.75 L336.3438,18.6719 Z " fill="#000000"/><text fill="#000000" font-family="sans-serif" font-size="12" lengthAdjust="spacingAndGlyphs" textLength="70" x="348" y="27.1543">Mastermind</text><line style="stroke:#A80036;stroke-width:1.5;" x1="320" x2="420" y1="39" y2="39"/><line style="stroke:#A80036;stroke-width:1.5;" x1="320" x2="420" y1="47" y2="47"/><ellipse cx="330" cy="58" fill="#84BE84" rx="3" ry="3" style="stroke:#038048;stroke-width:1.0;"/><text fill="#000000" font-family="sans-serif" font-size="11" lengthAdjust="spacingAndGlyphs" text-decoration="underline" textLength="36" x="339" y="61.2104">main()</text><!--MD5=[b6dcce5e5ef3c84b0b048d11301373dd]
class Game--><rect codeLine="5" fill="#FEFECE" filter="url(#f1qgs8k69yvj1a)" height="73.6094" id="Game" style="stroke:#A80036;stroke-width:1.5;" width="154" x="293" y="128"/><ellipse cx="348.25" cy="144" fill="#ADD1B2" rx="11" ry="11" style="stroke:#A80036;stroke-width:1.0;"/><path d="M350.5938,139.6719 C349.6563,139.2344 349.0625,139.0938 348.1875,139.0938 C345.5625,139.0938 343.5625,141.1719 343.5625,143.8906 L343.5625,145.0156 C343.5625,147.5938 345.6719,149.4844 348.5625,149.4844 C349.7813,149.4844 350.9375,149.1875 351.6875,148.6406 C352.2656,148.2344 352.5938,147.7813 352.5938,147.3906 C352.5938,146.9375 352.2031,146.5469 351.7344,146.5469 C351.5156,146.5469 351.3125,146.625 351.125,146.8125 C350.6719,147.2969 350.6719,147.2969 350.4844,147.3906 C350.0625,147.6563 349.375,147.7813 348.6094,147.7813 C346.5625,147.7813 345.2656,146.6875 345.2656,144.9844 L345.2656,143.8906 C345.2656,142.1094 346.5156,140.7969 348.25,140.7969 C348.8281,140.7969 349.4375,140.9531 349.9063,141.2031 C350.3906,141.4844 350.5625,141.7031 350.6563,142.1094 C350.7188,142.5156 350.75,142.6406 350.8906,142.7656 C351.0313,142.9063 351.2656,143.0156 351.4844,143.0156 C351.75,143.0156 352.0156,142.875 352.1875,142.6563 C352.2969,142.5 352.3281,142.3125 352.3281,141.8906 L352.3281,140.4688 C352.3281,140.0313 352.3125,139.9063 352.2188,139.75 C352.0625,139.4844 351.7813,139.3438 351.4844,139.3438 C351.1875,139.3438 350.9844,139.4375 350.7656,139.75 L350.5938,139.6719 Z " fill="#000000"/><text fill="#000000" font-family="sans-serif" font-size="12" lengthAdjust="spacingAndGlyphs" textLength="35" x="368.75" y="148.1543">Game</text><line style="stroke:#A80036;stroke-width:1.5;" x1="294" x2="446" y1="160" y2="160"/><line style="stroke:#A80036;stroke-width:1.5;" x1="294" x2="446" y1="168" y2="168"/><ellipse cx="304" cy="179" fill="#84BE84" rx="3" ry="3" style="stroke:#038048;stroke-width:1.0;"/><text fill="#000000" font-family="sans-serif" font-size="11" lengthAdjust="spacingAndGlyphs" text-decoration="underline" textLength="128" x="313" y="182.2104">isResumed() : boolean</text><ellipse cx="304" cy="191.8047" fill="#84BE84" rx="3" ry="3" style="stroke:#038048;stroke-width:1.0;"/><text fill="#000000" font-family="sans-serif" font-size="11" lengthAdjust="spacingAndGlyphs" text-decoration="underline" textLength="33" x="313" y="195.0151">start()</text><!--MD5=[315b61b427ec618d6861d47eee00cca3]
class Console--><rect codeLine="10" fill="#FEFECE" filter="url(#f1qgs8k69yvj1a)" height="227.2656" id="Console" style="stroke:#A80036;stroke-width:1.5;" width="310" x="7" y="262"/><ellipse cx="133.25" cy="278" fill="#ADD1B2" rx="11" ry="11" style="stroke:#A80036;stroke-width:1.0;"/><path d="M135.5938,273.6719 C134.6563,273.2344 134.0625,273.0938 133.1875,273.0938 C130.5625,273.0938 128.5625,275.1719 128.5625,277.8906 L128.5625,279.0156 C128.5625,281.5938 130.6719,283.4844 133.5625,283.4844 C134.7813,283.4844 135.9375,283.1875 136.6875,282.6406 C137.2656,282.2344 137.5938,281.7813 137.5938,281.3906 C137.5938,280.9375 137.2031,280.5469 136.7344,280.5469 C136.5156,280.5469 136.3125,280.625 136.125,280.8125 C135.6719,281.2969 135.6719,281.2969 135.4844,281.3906 C135.0625,281.6563 134.375,281.7813 133.6094,281.7813 C131.5625,281.7813 130.2656,280.6875 130.2656,278.9844 L130.2656,277.8906 C130.2656,276.1094 131.5156,274.7969 133.25,274.7969 C133.8281,274.7969 134.4375,274.9531 134.9063,275.2031 C135.3906,275.4844 135.5625,275.7031 135.6563,276.1094 C135.7188,276.5156 135.75,276.6406 135.8906,276.7656 C136.0313,276.9063 136.2656,277.0156 136.4844,277.0156 C136.75,277.0156 137.0156,276.875 137.1875,276.6563 C137.2969,276.5 137.3281,276.3125 137.3281,275.8906 L137.3281,274.4688 C137.3281,274.0313 137.3125,273.9063 137.2188,273.75 C137.0625,273.4844 136.7813,273.3438 136.4844,273.3438 C136.1875,273.3438 135.9844,273.4375 135.7656,273.75 L135.5938,273.6719 Z " fill="#000000"/><text fill="#000000" font-family="sans-serif" font-size="12" lengthAdjust="spacingAndGlyphs" textLength="49" x="153.75" y="282.1543">Console</text><line style="stroke:#A80036;stroke-width:1.5;" x1="8" x2="316" y1="294" y2="294"/><line style="stroke:#A80036;stroke-width:1.5;" x1="8" x2="316" y1="302" y2="302"/><ellipse cx="18" cy="313" fill="#84BE84" rx="3" ry="3" style="stroke:#038048;stroke-width:1.0;"/><text fill="#000000" font-family="sans-serif" font-size="11" lengthAdjust="spacingAndGlyphs" text-decoration="underline" textLength="141" x="27" y="316.2104">printMastermindHeader()</text><ellipse cx="18" cy="325.8047" fill="#84BE84" rx="3" ry="3" style="stroke:#038048;stroke-width:1.0;"/><text fill="#000000" font-family="sans-serif" font-size="11" lengthAdjust="spacingAndGlyphs" text-decoration="underline" textLength="166" x="27" y="329.0151">printColorOf(Position position)</text><ellipse cx="18" cy="338.6094" fill="#84BE84" rx="3" ry="3" style="stroke:#038048;stroke-width:1.0;"/><text fill="#000000" font-family="sans-serif" font-size="11" lengthAdjust="spacingAndGlyphs" text-decoration="underline" textLength="100" x="27" y="341.8198">printAttempt(int i)</text><ellipse cx="18" cy="351.4141" fill="#84BE84" rx="3" ry="3" style="stroke:#038048;stroke-width:1.0;"/><text fill="#000000" font-family="sans-serif" font-size="11" lengthAdjust="spacingAndGlyphs" text-decoration="underline" textLength="202" x="27" y="354.6245">introProposingCombination() : String</text><ellipse cx="18" cy="364.2188" fill="#84BE84" rx="3" ry="3" style="stroke:#038048;stroke-width:1.0;"/><text fill="#000000" font-family="sans-serif" font-size="11" lengthAdjust="spacingAndGlyphs" text-decoration="underline" textLength="108" x="27" y="367.4292">printWrongLength()</text><ellipse cx="18" cy="377.0234" fill="#84BE84" rx="3" ry="3" style="stroke:#038048;stroke-width:1.0;"/><text fill="#000000" font-family="sans-serif" font-size="11" lengthAdjust="spacingAndGlyphs" text-decoration="underline" textLength="104" x="27" y="380.2339">printWrongColors()</text><ellipse cx="18" cy="389.8281" fill="#84BE84" rx="3" ry="3" style="stroke:#038048;stroke-width:1.0;"/><text fill="#000000" font-family="sans-serif" font-size="11" lengthAdjust="spacingAndGlyphs" text-decoration="underline" textLength="161" x="27" y="393.0386">printWrongColorSingleness()</text><ellipse cx="18" cy="402.6328" fill="#84BE84" rx="3" ry="3" style="stroke:#038048;stroke-width:1.0;"/><text fill="#000000" font-family="sans-serif" font-size="11" lengthAdjust="spacingAndGlyphs" text-decoration="underline" textLength="284" x="27" y="405.8433">print(ProposedCombination proposedCombination)</text><ellipse cx="18" cy="415.4375" fill="#84BE84" rx="3" ry="3" style="stroke:#038048;stroke-width:1.0;"/><text fill="#000000" font-family="sans-serif" font-size="11" lengthAdjust="spacingAndGlyphs" text-decoration="underline" textLength="65" x="27" y="418.6479">printArrow()</text><ellipse cx="18" cy="428.2422" fill="#84BE84" rx="3" ry="3" style="stroke:#038048;stroke-width:1.0;"/><text fill="#000000" font-family="sans-serif" font-size="11" lengthAdjust="spacingAndGlyphs" text-decoration="underline" textLength="240" x="27" y="431.4526">printBlacksWhites(int nBlacks, int nWhites)</text><ellipse cx="18" cy="441.0469" fill="#84BE84" rx="3" ry="3" style="stroke:#038048;stroke-width:1.0;"/><text fill="#000000" font-family="sans-serif" font-size="11" lengthAdjust="spacingAndGlyphs" text-decoration="underline" textLength="139" x="27" y="444.2573">printPrecedingResults(...)</text><ellipse cx="18" cy="453.8516" fill="#84BE84" rx="3" ry="3" style="stroke:#038048;stroke-width:1.0;"/><text fill="#000000" font-family="sans-serif" font-size="11" lengthAdjust="spacingAndGlyphs" text-decoration="underline" textLength="109" x="27" y="457.062">printYouHaveWon()</text><ellipse cx="18" cy="466.6563" fill="#84BE84" rx="3" ry="3" style="stroke:#038048;stroke-width:1.0;"/><text fill="#000000" font-family="sans-serif" font-size="11" lengthAdjust="spacingAndGlyphs" text-decoration="underline" textLength="107" x="27" y="469.8667">printYouHaveLost()</text><ellipse cx="18" cy="479.4609" fill="#84BE84" rx="3" ry="3" style="stroke:#038048;stroke-width:1.0;"/><text fill="#000000" font-family="sans-serif" font-size="11" lengthAdjust="spacingAndGlyphs" text-decoration="underline" textLength="124" x="27" y="482.6714">printResume() : String</text><!--MD5=[28491d17d5ee38c9c116625a5ffc259a]
class Combination--><rect codeLine="27" fill="#FEFECE" filter="url(#f1qgs8k69yvj1a)" height="112.0234" id="Combination" style="stroke:#A80036;stroke-width:1.5;" width="212" x="494" y="734"/><ellipse cx="558.75" cy="750" fill="#ADD1B2" rx="11" ry="11" style="stroke:#A80036;stroke-width:1.0;"/><path d="M561.0938,745.6719 C560.1563,745.2344 559.5625,745.0938 558.6875,745.0938 C556.0625,745.0938 554.0625,747.1719 554.0625,749.8906 L554.0625,751.0156 C554.0625,753.5938 556.1719,755.4844 559.0625,755.4844 C560.2813,755.4844 561.4375,755.1875 562.1875,754.6406 C562.7656,754.2344 563.0938,753.7813 563.0938,753.3906 C563.0938,752.9375 562.7031,752.5469 562.2344,752.5469 C562.0156,752.5469 561.8125,752.625 561.625,752.8125 C561.1719,753.2969 561.1719,753.2969 560.9844,753.3906 C560.5625,753.6563 559.875,753.7813 559.1094,753.7813 C557.0625,753.7813 555.7656,752.6875 555.7656,750.9844 L555.7656,749.8906 C555.7656,748.1094 557.0156,746.7969 558.75,746.7969 C559.3281,746.7969 559.9375,746.9531 560.4063,747.2031 C560.8906,747.4844 561.0625,747.7031 561.1563,748.1094 C561.2188,748.5156 561.25,748.6406 561.3906,748.7656 C561.5313,748.9063 561.7656,749.0156 561.9844,749.0156 C562.25,749.0156 562.5156,748.875 562.6875,748.6563 C562.7969,748.5 562.8281,748.3125 562.8281,747.8906 L562.8281,746.4688 C562.8281,746.0313 562.8125,745.9063 562.7188,745.75 C562.5625,745.4844 562.2813,745.3438 561.9844,745.3438 C561.6875,745.3438 561.4844,745.4375 561.2656,745.75 L561.0938,745.6719 Z " fill="#000000"/><text fill="#000000" font-family="sans-serif" font-size="12" lengthAdjust="spacingAndGlyphs" textLength="74" x="579.25" y="754.1543">Combination</text><line style="stroke:#A80036;stroke-width:1.5;" x1="495" x2="705" y1="766" y2="766"/><ellipse cx="505" cy="777" fill="none" rx="3" ry="3" style="stroke:#038048;stroke-width:1.0;"/><text fill="#000000" font-family="sans-serif" font-size="11" lengthAdjust="spacingAndGlyphs" text-decoration="underline" textLength="156" x="514" y="780.2104">int POSITIONS_NUMBER = 4</text><line style="stroke:#A80036;stroke-width:1.5;" x1="495" x2="705" y1="786.8047" y2="786.8047"/><ellipse cx="505" cy="797.8047" fill="#84BE84" rx="3" ry="3" style="stroke:#038048;stroke-width:1.0;"/><text fill="#000000" font-family="sans-serif" font-size="11" lengthAdjust="spacingAndGlyphs" textLength="79" x="514" y="801.0151">Combination()</text><ellipse cx="505" cy="810.6094" fill="#84BE84" rx="3" ry="3" style="stroke:#038048;stroke-width:1.0;"/><text fill="#000000" font-family="sans-serif" font-size="11" lengthAdjust="spacingAndGlyphs" textLength="177" x="514" y="813.8198">Combination(String legalString)</text><ellipse cx="505" cy="823.4141" fill="#84BE84" rx="3" ry="3" style="stroke:#038048;stroke-width:1.0;"/><text fill="#000000" font-family="sans-serif" font-size="11" lengthAdjust="spacingAndGlyphs" textLength="52" x="514" y="826.6245">toString()</text><ellipse cx="505" cy="836.2188" fill="#84BE84" rx="3" ry="3" style="stroke:#038048;stroke-width:1.0;"/><text fill="#000000" font-family="sans-serif" font-size="11" lengthAdjust="spacingAndGlyphs" textLength="186" x="514" y="839.4292">getColorOfItsPosition(int i) : Color</text><!--MD5=[a64a835c3d62471a77f615251fdde58a]
class Position--><rect codeLine="35" fill="#FEFECE" filter="url(#f1qgs8k69yvj1a)" height="86.4141" id="Position" style="stroke:#A80036;stroke-width:1.5;" width="158" x="510" y="1040"/><ellipse cx="561.75" cy="1056" fill="#ADD1B2" rx="11" ry="11" style="stroke:#A80036;stroke-width:1.0;"/><path d="M564.0938,1051.6719 C563.1563,1051.2344 562.5625,1051.0938 561.6875,1051.0938 C559.0625,1051.0938 557.0625,1053.1719 557.0625,1055.8906 L557.0625,1057.0156 C557.0625,1059.5938 559.1719,1061.4844 562.0625,1061.4844 C563.2813,1061.4844 564.4375,1061.1875 565.1875,1060.6406 C565.7656,1060.2344 566.0938,1059.7813 566.0938,1059.3906 C566.0938,1058.9375 565.7031,1058.5469 565.2344,1058.5469 C565.0156,1058.5469 564.8125,1058.625 564.625,1058.8125 C564.1719,1059.2969 564.1719,1059.2969 563.9844,1059.3906 C563.5625,1059.6563 562.875,1059.7813 562.1094,1059.7813 C560.0625,1059.7813 558.7656,1058.6875 558.7656,1056.9844 L558.7656,1055.8906 C558.7656,1054.1094 560.0156,1052.7969 561.75,1052.7969 C562.3281,1052.7969 562.9375,1052.9531 563.4063,1053.2031 C563.8906,1053.4844 564.0625,1053.7031 564.1563,1054.1094 C564.2188,1054.5156 564.25,1054.6406 564.3906,1054.7656 C564.5313,1054.9063 564.7656,1055.0156 564.9844,1055.0156 C565.25,1055.0156 565.5156,1054.875 565.6875,1054.6563 C565.7969,1054.5 565.8281,1054.3125 565.8281,1053.8906 L565.8281,1052.4688 C565.8281,1052.0313 565.8125,1051.9063 565.7188,1051.75 C565.5625,1051.4844 565.2813,1051.3438 564.9844,1051.3438 C564.6875,1051.3438 564.4844,1051.4375 564.2656,1051.75 L564.0938,1051.6719 Z " fill="#000000"/><text fill="#000000" font-family="sans-serif" font-size="12" lengthAdjust="spacingAndGlyphs" textLength="46" x="582.25" y="1060.1543">Position</text><line style="stroke:#A80036;stroke-width:1.5;" x1="511" x2="667" y1="1072" y2="1072"/><line style="stroke:#A80036;stroke-width:1.5;" x1="511" x2="667" y1="1080" y2="1080"/><ellipse cx="521" cy="1091" fill="#84BE84" rx="3" ry="3" style="stroke:#038048;stroke-width:1.0;"/><text fill="#000000" font-family="sans-serif" font-size="11" lengthAdjust="spacingAndGlyphs" textLength="111" x="530" y="1094.2104">Position(Color color)</text><ellipse cx="521" cy="1103.8047" fill="#84BE84" rx="3" ry="3" style="stroke:#038048;stroke-width:1.0;"/><text fill="#000000" font-family="sans-serif" font-size="11" lengthAdjust="spacingAndGlyphs" textLength="132" x="530" y="1107.0151">Position(char character)</text><ellipse cx="521" cy="1116.6094" fill="#84BE84" rx="3" ry="3" style="stroke:#038048;stroke-width:1.0;"/><text fill="#000000" font-family="sans-serif" font-size="11" lengthAdjust="spacingAndGlyphs" textLength="96" x="530" y="1119.8198">getColor() : Color</text><!--MD5=[18eee71c88ab61f27581b8cbdd3ef5ee]
class Color--><rect codeLine="41" fill="#FEFECE" filter="url(#f1qgs8k69yvj1a)" height="188.8516" id="Color" style="stroke:#A80036;stroke-width:1.5;" width="262" x="458" y="1199"/><ellipse cx="568.75" cy="1215" fill="#EB937F" rx="11" ry="11" style="stroke:#A80036;stroke-width:1.0;"/><path d="M567.5469,1215.875 L569,1215.875 L569,1215.9844 C569,1216.3906 569.0313,1216.5469 569.1094,1216.7031 C569.2656,1216.9531 569.5469,1217.1094 569.8438,1217.1094 C570.0938,1217.1094 570.3594,1216.9688 570.5156,1216.75 C570.6406,1216.5938 570.6719,1216.4375 570.6719,1215.9844 L570.6719,1214.0625 C570.6719,1213.9063 570.6719,1213.8594 570.6563,1213.7031 C570.5938,1213.2344 570.2813,1212.9219 569.8281,1212.9219 C569.5781,1212.9219 569.3125,1213.0625 569.1406,1213.2813 C569.0313,1213.4531 569,1213.6094 569,1214.0625 L569,1214.1875 L567.5469,1214.1875 L567.5469,1211.7813 L571.5313,1211.7813 L571.5313,1212.6406 C571.5313,1213.0469 571.5625,1213.2188 571.6406,1213.375 C571.8125,1213.625 572.0938,1213.7813 572.375,1213.7813 C572.6406,1213.7813 572.9063,1213.6406 573.0781,1213.4219 C573.1875,1213.25 573.2188,1213.1094 573.2188,1212.6406 L573.2188,1210.0938 L565.5938,1210.0938 C565.1563,1210.0938 565.0313,1210.1094 564.875,1210.2031 C564.625,1210.3594 564.4688,1210.6563 564.4688,1210.9375 C564.4688,1211.2188 564.6094,1211.4688 564.8281,1211.6406 C564.9844,1211.75 565.1719,1211.7813 565.5938,1211.7813 L565.8438,1211.7813 L565.8438,1218.2969 L565.5938,1218.2969 C565.1875,1218.2969 565.0313,1218.3125 564.875,1218.4219 C564.625,1218.5938 564.4688,1218.8594 564.4688,1219.1563 C564.4688,1219.4219 564.6094,1219.6719 564.8281,1219.8281 C564.9688,1219.9531 565.2031,1220 565.5938,1220 L573.5938,1220 L573.5938,1217.4219 C573.5938,1216.9844 573.5625,1216.8438 573.4844,1216.6875 C573.3125,1216.4375 573.0313,1216.2813 572.75,1216.2813 C572.4844,1216.2813 572.2188,1216.3906 572.0469,1216.6406 C571.9375,1216.7969 571.9063,1216.9375 571.9063,1217.4219 L571.9063,1218.2969 L567.5469,1218.2969 L567.5469,1215.875 Z " fill="#000000"/><text fill="#000000" font-family="sans-serif" font-size="12" lengthAdjust="spacingAndGlyphs" textLength="32" x="589.25" y="1219.1543">Color</text><line style="stroke:#A80036;stroke-width:1.5;" x1="459" x2="719" y1="1231" y2="1231"/><text fill="#000000" font-family="sans-serif" font-size="11" lengthAdjust="spacingAndGlyphs" textLength="23" x="478" y="1245.2104">RED</text><text fill="#000000" font-family="sans-serif" font-size="11" lengthAdjust="spacingAndGlyphs" textLength="29" x="478" y="1258.0151">BLUE</text><text fill="#000000" font-family="sans-serif" font-size="11" lengthAdjust="spacingAndGlyphs" textLength="46" x="478" y="1270.8198">YELLOW</text><text fill="#000000" font-family="sans-serif" font-size="11" lengthAdjust="spacingAndGlyphs" textLength="38" x="478" y="1283.6245">GREEN</text><text fill="#000000" font-family="sans-serif" font-size="11" lengthAdjust="spacingAndGlyphs" textLength="48" x="478" y="1296.4292">ORANGE</text><text fill="#000000" font-family="sans-serif" font-size="11" lengthAdjust="spacingAndGlyphs" textLength="40" x="478" y="1309.2339">PURPLE</text><ellipse cx="469" cy="1318.8281" fill="none" rx="3" ry="3" style="stroke:#038048;stroke-width:1.0;"/><text fill="#000000" font-family="sans-serif" font-size="11" lengthAdjust="spacingAndGlyphs" text-decoration="underline" textLength="236" x="478" y="1322.0386">char[] characters = {'r', 'b', 'y', 'g', 'o', 'p'}</text><ellipse cx="469" cy="1331.6328" fill="none" rx="3" ry="3" style="stroke:#038048;stroke-width:1.0;"/><text fill="#000000" font-family="sans-serif" font-size="11" lengthAdjust="spacingAndGlyphs" text-decoration="underline" textLength="209" x="478" y="1334.8433">String charactersAsString = "rbygop"</text><line style="stroke:#A80036;stroke-width:1.5;" x1="459" x2="719" y1="1341.4375" y2="1341.4375"/><ellipse cx="469" cy="1352.4375" fill="#84BE84" rx="3" ry="3" style="stroke:#038048;stroke-width:1.0;"/><text fill="#000000" font-family="sans-serif" font-size="11" lengthAdjust="spacingAndGlyphs" text-decoration="underline" textLength="184" x="478" y="1355.6479">numberOfColorsAvailables() : int</text><ellipse cx="469" cy="1365.2422" fill="#84BE84" rx="3" ry="3" style="stroke:#038048;stroke-width:1.0;"/><text fill="#000000" font-family="sans-serif" font-size="11" lengthAdjust="spacingAndGlyphs" textLength="80" x="478" y="1368.4526">toChar() : char</text><ellipse cx="469" cy="1378.0469" fill="#84BE84" rx="3" ry="3" style="stroke:#038048;stroke-width:1.0;"/><text fill="#000000" font-family="sans-serif" font-size="11" lengthAdjust="spacingAndGlyphs" text-decoration="underline" textLength="142" x="478" y="1381.2573">getRandomColor() : Color</text><!--MD5=[e370ee5c0c15ce04544d5f5a73174d72]
class SecretCombination--><rect codeLine="63" fill="#FEFECE" filter="url(#f1qgs8k69yvj1a)" height="60.8047" id="SecretCombination" style="stroke:#A80036;stroke-width:1.5;" width="146" x="368" y="906"/><ellipse cx="383" cy="922" fill="#ADD1B2" rx="11" ry="11" style="stroke:#A80036;stroke-width:1.0;"/><path d="M385.3438,917.6719 C384.4063,917.2344 383.8125,917.0938 382.9375,917.0938 C380.3125,917.0938 378.3125,919.1719 378.3125,921.8906 L378.3125,923.0156 C378.3125,925.5938 380.4219,927.4844 383.3125,927.4844 C384.5313,927.4844 385.6875,927.1875 386.4375,926.6406 C387.0156,926.2344 387.3438,925.7813 387.3438,925.3906 C387.3438,924.9375 386.9531,924.5469 386.4844,924.5469 C386.2656,924.5469 386.0625,924.625 385.875,924.8125 C385.4219,925.2969 385.4219,925.2969 385.2344,925.3906 C384.8125,925.6563 384.125,925.7813 383.3594,925.7813 C381.3125,925.7813 380.0156,924.6875 380.0156,922.9844 L380.0156,921.8906 C380.0156,920.1094 381.2656,918.7969 383,918.7969 C383.5781,918.7969 384.1875,918.9531 384.6563,919.2031 C385.1406,919.4844 385.3125,919.7031 385.4063,920.1094 C385.4688,920.5156 385.5,920.6406 385.6406,920.7656 C385.7813,920.9063 386.0156,921.0156 386.2344,921.0156 C386.5,921.0156 386.7656,920.875 386.9375,920.6563 C387.0469,920.5 387.0781,920.3125 387.0781,919.8906 L387.0781,918.4688 C387.0781,918.0313 387.0625,917.9063 386.9688,917.75 C386.8125,917.4844 386.5313,917.3438 386.2344,917.3438 C385.9375,917.3438 385.7344,917.4375 385.5156,917.75 L385.3438,917.6719 Z " fill="#000000"/><text fill="#000000" font-family="sans-serif" font-size="12" lengthAdjust="spacingAndGlyphs" textLength="114" x="397" y="926.1543">SecretCombination</text><line style="stroke:#A80036;stroke-width:1.5;" x1="369" x2="513" y1="938" y2="938"/><line style="stroke:#A80036;stroke-width:1.5;" x1="369" x2="513" y1="946" y2="946"/><ellipse cx="379" cy="957" fill="#84BE84" rx="3" ry="3" style="stroke:#038048;stroke-width:1.0;"/><text fill="#000000" font-family="sans-serif" font-size="11" lengthAdjust="spacingAndGlyphs" textLength="117" x="388" y="960.2104">SecretCombination()</text><!--MD5=[cf489b19c51ee25e76ddca093e62e620]
class ProposedCombination--><rect codeLine="71" fill="#FEFECE" filter="url(#f1qgs8k69yvj1a)" height="60.8047" id="ProposedCombination" style="stroke:#A80036;stroke-width:1.5;" width="255" x="642.5" y="906"/><ellipse cx="699.75" cy="922" fill="#ADD1B2" rx="11" ry="11" style="stroke:#A80036;stroke-width:1.0;"/><path d="M702.0938,917.6719 C701.1563,917.2344 700.5625,917.0938 699.6875,917.0938 C697.0625,917.0938 695.0625,919.1719 695.0625,921.8906 L695.0625,923.0156 C695.0625,925.5938 697.1719,927.4844 700.0625,927.4844 C701.2813,927.4844 702.4375,927.1875 703.1875,926.6406 C703.7656,926.2344 704.0938,925.7813 704.0938,925.3906 C704.0938,924.9375 703.7031,924.5469 703.2344,924.5469 C703.0156,924.5469 702.8125,924.625 702.625,924.8125 C702.1719,925.2969 702.1719,925.2969 701.9844,925.3906 C701.5625,925.6563 700.875,925.7813 700.1094,925.7813 C698.0625,925.7813 696.7656,924.6875 696.7656,922.9844 L696.7656,921.8906 C696.7656,920.1094 698.0156,918.7969 699.75,918.7969 C700.3281,918.7969 700.9375,918.9531 701.4063,919.2031 C701.8906,919.4844 702.0625,919.7031 702.1563,920.1094 C702.2188,920.5156 702.25,920.6406 702.3906,920.7656 C702.5313,920.9063 702.7656,921.0156 702.9844,921.0156 C703.25,921.0156 703.5156,920.875 703.6875,920.6563 C703.7969,920.5 703.8281,920.3125 703.8281,919.8906 L703.8281,918.4688 C703.8281,918.0313 703.8125,917.9063 703.7188,917.75 C703.5625,917.4844 703.2813,917.3438 702.9844,917.3438 C702.6875,917.3438 702.4844,917.4375 702.2656,917.75 L702.0938,917.6719 Z " fill="#000000"/><text fill="#000000" font-family="sans-serif" font-size="12" lengthAdjust="spacingAndGlyphs" textLength="132" x="720.25" y="926.1543">ProposedCombination</text><line style="stroke:#A80036;stroke-width:1.5;" x1="643.5" x2="896.5" y1="938" y2="938"/><line style="stroke:#A80036;stroke-width:1.5;" x1="643.5" x2="896.5" y1="946" y2="946"/><ellipse cx="653.5" cy="957" fill="#84BE84" rx="3" ry="3" style="stroke:#038048;stroke-width:1.0;"/><text fill="#000000" font-family="sans-serif" font-size="11" lengthAdjust="spacingAndGlyphs" textLength="229" x="662.5" y="960.2104">ProposedCombination(String legalString)</text><!--MD5=[7aa1f1dff9826083057fe155c5dd6e52]
class Checker--><rect codeLine="103" fill="#FEFECE" filter="url(#f1qgs8k69yvj1a)" height="112.0234" id="Checker" style="stroke:#A80036;stroke-width:1.5;" width="334" x="141" y="1027"/><ellipse cx="278.75" cy="1043" fill="#ADD1B2" rx="11" ry="11" style="stroke:#A80036;stroke-width:1.0;"/><path d="M281.0938,1038.6719 C280.1563,1038.2344 279.5625,1038.0938 278.6875,1038.0938 C276.0625,1038.0938 274.0625,1040.1719 274.0625,1042.8906 L274.0625,1044.0156 C274.0625,1046.5938 276.1719,1048.4844 279.0625,1048.4844 C280.2813,1048.4844 281.4375,1048.1875 282.1875,1047.6406 C282.7656,1047.2344 283.0938,1046.7813 283.0938,1046.3906 C283.0938,1045.9375 282.7031,1045.5469 282.2344,1045.5469 C282.0156,1045.5469 281.8125,1045.625 281.625,1045.8125 C281.1719,1046.2969 281.1719,1046.2969 280.9844,1046.3906 C280.5625,1046.6563 279.875,1046.7813 279.1094,1046.7813 C277.0625,1046.7813 275.7656,1045.6875 275.7656,1043.9844 L275.7656,1042.8906 C275.7656,1041.1094 277.0156,1039.7969 278.75,1039.7969 C279.3281,1039.7969 279.9375,1039.9531 280.4063,1040.2031 C280.8906,1040.4844 281.0625,1040.7031 281.1563,1041.1094 C281.2188,1041.5156 281.25,1041.6406 281.3906,1041.7656 C281.5313,1041.9063 281.7656,1042.0156 281.9844,1042.0156 C282.25,1042.0156 282.5156,1041.875 282.6875,1041.6563 C282.7969,1041.5 282.8281,1041.3125 282.8281,1040.8906 L282.8281,1039.4688 C282.8281,1039.0313 282.8125,1038.9063 282.7188,1038.75 C282.5625,1038.4844 282.2813,1038.3438 281.9844,1038.3438 C281.6875,1038.3438 281.4844,1038.4375 281.2656,1038.75 L281.0938,1038.6719 Z " fill="#000000"/><text fill="#000000" font-family="sans-serif" font-size="12" lengthAdjust="spacingAndGlyphs" textLength="50" x="299.25" y="1047.1543">Checker</text><line style="stroke:#A80036;stroke-width:1.5;" x1="142" x2="474" y1="1059" y2="1059"/><line style="stroke:#A80036;stroke-width:1.5;" x1="142" x2="474" y1="1067" y2="1067"/><ellipse cx="152" cy="1078" fill="#84BE84" rx="3" ry="3" style="stroke:#038048;stroke-width:1.0;"/><text fill="#000000" font-family="sans-serif" font-size="11" lengthAdjust="spacingAndGlyphs" text-decoration="underline" textLength="279" x="161" y="1081.2104">isWrong(String _proposingCombination) : boolean</text><ellipse cx="152" cy="1090.8047" fill="#84BE84" rx="3" ry="3" style="stroke:#038048;stroke-width:1.0;"/><text fill="#000000" font-family="sans-serif" font-size="11" lengthAdjust="spacingAndGlyphs" text-decoration="underline" textLength="149" x="161" y="1094.0151">isWrongLength() : boolean</text><ellipse cx="152" cy="1103.6094" fill="#84BE84" rx="3" ry="3" style="stroke:#038048;stroke-width:1.0;"/><text fill="#000000" font-family="sans-serif" font-size="11" lengthAdjust="spacingAndGlyphs" text-decoration="underline" textLength="145" x="161" y="1106.8198">isWrongColors() : boolean</text><ellipse cx="152" cy="1116.4141" fill="#84BE84" rx="3" ry="3" style="stroke:#038048;stroke-width:1.0;"/><text fill="#000000" font-family="sans-serif" font-size="11" lengthAdjust="spacingAndGlyphs" text-decoration="underline" textLength="202" x="161" y="1119.6245">isWrongColorSingleness() : boolean</text><ellipse cx="152" cy="1129.2188" fill="#84BE84" rx="3" ry="3" style="stroke:#038048;stroke-width:1.0;"/><text fill="#000000" font-family="sans-serif" font-size="11" lengthAdjust="spacingAndGlyphs" text-decoration="underline" textLength="308" x="161" y="1132.4292">isWrongColorSingleness(String combination) : boolean</text><!--MD5=[2741598bdf59a7d7e0d5c97658fd3022]
class Result--><rect codeLine="75" fill="#FEFECE" filter="url(#f1qgs8k69yvj1a)" height="124.8281" id="Result" style="stroke:#A80036;stroke-width:1.5;" width="471" x="799.5" y="549"/><ellipse cx="1012.75" cy="565" fill="#ADD1B2" rx="11" ry="11" style="stroke:#A80036;stroke-width:1.0;"/><path d="M1015.0938,560.6719 C1014.1563,560.2344 1013.5625,560.0938 1012.6875,560.0938 C1010.0625,560.0938 1008.0625,562.1719 1008.0625,564.8906 L1008.0625,566.0156 C1008.0625,568.5938 1010.1719,570.4844 1013.0625,570.4844 C1014.2813,570.4844 1015.4375,570.1875 1016.1875,569.6406 C1016.7656,569.2344 1017.0938,568.7813 1017.0938,568.3906 C1017.0938,567.9375 1016.7031,567.5469 1016.2344,567.5469 C1016.0156,567.5469 1015.8125,567.625 1015.625,567.8125 C1015.1719,568.2969 1015.1719,568.2969 1014.9844,568.3906 C1014.5625,568.6563 1013.875,568.7813 1013.1094,568.7813 C1011.0625,568.7813 1009.7656,567.6875 1009.7656,565.9844 L1009.7656,564.8906 C1009.7656,563.1094 1011.0156,561.7969 1012.75,561.7969 C1013.3281,561.7969 1013.9375,561.9531 1014.4063,562.2031 C1014.8906,562.4844 1015.0625,562.7031 1015.1563,563.1094 C1015.2188,563.5156 1015.25,563.6406 1015.3906,563.7656 C1015.5313,563.9063 1015.7656,564.0156 1015.9844,564.0156 C1016.25,564.0156 1016.5156,563.875 1016.6875,563.6563 C1016.7969,563.5 1016.8281,563.3125 1016.8281,562.8906 L1016.8281,561.4688 C1016.8281,561.0313 1016.8125,560.9063 1016.7188,560.75 C1016.5625,560.4844 1016.2813,560.3438 1015.9844,560.3438 C1015.6875,560.3438 1015.4844,560.4375 1015.2656,560.75 L1015.0938,560.6719 Z " fill="#000000"/><text fill="#000000" font-family="sans-serif" font-size="12" lengthAdjust="spacingAndGlyphs" textLength="36" x="1033.25" y="569.1543">Result</text><line style="stroke:#A80036;stroke-width:1.5;" x1="800.5" x2="1269.5" y1="581" y2="581"/><line style="stroke:#A80036;stroke-width:1.5;" x1="800.5" x2="1269.5" y1="589" y2="589"/><ellipse cx="810.5" cy="600" fill="#84BE84" rx="3" ry="3" style="stroke:#038048;stroke-width:1.0;"/><text fill="#000000" font-family="sans-serif" font-size="11" lengthAdjust="spacingAndGlyphs" textLength="43" x="819.5" y="603.2104">Result()</text><ellipse cx="810.5" cy="612.8047" fill="#84BE84" rx="3" ry="3" style="stroke:#038048;stroke-width:1.0;"/><text fill="#000000" font-family="sans-serif" font-size="11" lengthAdjust="spacingAndGlyphs" textLength="445" x="819.5" y="616.0151">Result(SecretCombination sCombination, ProposedCombination pCombination)</text><ellipse cx="810.5" cy="625.6094" fill="#84BE84" rx="3" ry="3" style="stroke:#038048;stroke-width:1.0;"/><text fill="#000000" font-family="sans-serif" font-size="11" lengthAdjust="spacingAndGlyphs" textLength="126" x="819.5" y="628.8198">numberOfBlacks() : int</text><ellipse cx="810.5" cy="638.4141" fill="#84BE84" rx="3" ry="3" style="stroke:#038048;stroke-width:1.0;"/><text fill="#000000" font-family="sans-serif" font-size="11" lengthAdjust="spacingAndGlyphs" textLength="129" x="819.5" y="641.6245">numberOfWhites() : int</text><ellipse cx="810.5" cy="651.2188" fill="#84BE84" rx="3" ry="3" style="stroke:#038048;stroke-width:1.0;"/><text fill="#000000" font-family="sans-serif" font-size="11" lengthAdjust="spacingAndGlyphs" textLength="114" x="819.5" y="654.4292">isWinner() : boolean</text><ellipse cx="810.5" cy="664.0234" fill="#84BE84" rx="3" ry="3" style="stroke:#038048;stroke-width:1.0;"/><text fill="#000000" font-family="sans-serif" font-size="11" lengthAdjust="spacingAndGlyphs" text-decoration="underline" textLength="99" x="819.5" y="667.2339">setNotToWinner()</text><!--MD5=[62b2edce616dbe77035d94d16f9f0d8e]
class Success--><rect codeLine="85" fill="#FEFECE" filter="url(#f1qgs8k69yvj1a)" height="48" id="Success" style="stroke:#A80036;stroke-width:1.5;" width="83" x="993.5" y="766"/><ellipse cx="1008.5" cy="782" fill="#ADD1B2" rx="11" ry="11" style="stroke:#A80036;stroke-width:1.0;"/><path d="M1010.8438,777.6719 C1009.9063,777.2344 1009.3125,777.0938 1008.4375,777.0938 C1005.8125,777.0938 1003.8125,779.1719 1003.8125,781.8906 L1003.8125,783.0156 C1003.8125,785.5938 1005.9219,787.4844 1008.8125,787.4844 C1010.0313,787.4844 1011.1875,787.1875 1011.9375,786.6406 C1012.5156,786.2344 1012.8438,785.7813 1012.8438,785.3906 C1012.8438,784.9375 1012.4531,784.5469 1011.9844,784.5469 C1011.7656,784.5469 1011.5625,784.625 1011.375,784.8125 C1010.9219,785.2969 1010.9219,785.2969 1010.7344,785.3906 C1010.3125,785.6563 1009.625,785.7813 1008.8594,785.7813 C1006.8125,785.7813 1005.5156,784.6875 1005.5156,782.9844 L1005.5156,781.8906 C1005.5156,780.1094 1006.7656,778.7969 1008.5,778.7969 C1009.0781,778.7969 1009.6875,778.9531 1010.1563,779.2031 C1010.6406,779.4844 1010.8125,779.7031 1010.9063,780.1094 C1010.9688,780.5156 1011,780.6406 1011.1406,780.7656 C1011.2813,780.9063 1011.5156,781.0156 1011.7344,781.0156 C1012,781.0156 1012.2656,780.875 1012.4375,780.6563 C1012.5469,780.5 1012.5781,780.3125 1012.5781,779.8906 L1012.5781,778.4688 C1012.5781,778.0313 1012.5625,777.9063 1012.4688,777.75 C1012.3125,777.4844 1012.0313,777.3438 1011.7344,777.3438 C1011.4375,777.3438 1011.2344,777.4375 1011.0156,777.75 L1010.8438,777.6719 Z " fill="#000000"/><text fill="#000000" font-family="sans-serif" font-size="12" lengthAdjust="spacingAndGlyphs" textLength="51" x="1022.5" y="786.1543">Success</text><line style="stroke:#A80036;stroke-width:1.5;" x1="994.5" x2="1075.5" y1="798" y2="798"/><line style="stroke:#A80036;stroke-width:1.5;" x1="994.5" x2="1075.5" y1="806" y2="806"/><!--MD5=[365150d8163e865a226452c70cc7ad9f]
class Black--><rect fill="#FEFECE" filter="url(#f1qgs8k69yvj1a)" height="48" id="Black" style="stroke:#A80036;stroke-width:1.5;" width="64" x="946" y="912.5"/><ellipse cx="961" cy="928.5" fill="#ADD1B2" rx="11" ry="11" style="stroke:#A80036;stroke-width:1.0;"/><path d="M963.3438,924.1719 C962.4063,923.7344 961.8125,923.5938 960.9375,923.5938 C958.3125,923.5938 956.3125,925.6719 956.3125,928.3906 L956.3125,929.5156 C956.3125,932.0938 958.4219,933.9844 961.3125,933.9844 C962.5313,933.9844 963.6875,933.6875 964.4375,933.1406 C965.0156,932.7344 965.3438,932.2813 965.3438,931.8906 C965.3438,931.4375 964.9531,931.0469 964.4844,931.0469 C964.2656,931.0469 964.0625,931.125 963.875,931.3125 C963.4219,931.7969 963.4219,931.7969 963.2344,931.8906 C962.8125,932.1563 962.125,932.2813 961.3594,932.2813 C959.3125,932.2813 958.0156,931.1875 958.0156,929.4844 L958.0156,928.3906 C958.0156,926.6094 959.2656,925.2969 961,925.2969 C961.5781,925.2969 962.1875,925.4531 962.6563,925.7031 C963.1406,925.9844 963.3125,926.2031 963.4063,926.6094 C963.4688,927.0156 963.5,927.1406 963.6406,927.2656 C963.7813,927.4063 964.0156,927.5156 964.2344,927.5156 C964.5,927.5156 964.7656,927.375 964.9375,927.1563 C965.0469,927 965.0781,926.8125 965.0781,926.3906 L965.0781,924.9688 C965.0781,924.5313 965.0625,924.4063 964.9688,924.25 C964.8125,923.9844 964.5313,923.8438 964.2344,923.8438 C963.9375,923.8438 963.7344,923.9375 963.5156,924.25 L963.3438,924.1719 Z " fill="#000000"/><text fill="#000000" font-family="sans-serif" font-size="12" lengthAdjust="spacingAndGlyphs" textLength="32" x="975" y="932.6543">Black</text><line style="stroke:#A80036;stroke-width:1.5;" x1="947" x2="1009" y1="944.5" y2="944.5"/><line style="stroke:#A80036;stroke-width:1.5;" x1="947" x2="1009" y1="952.5" y2="952.5"/><!--MD5=[602b15352a41052f4d1a7dc34102cb35]
class White--><rect fill="#FEFECE" filter="url(#f1qgs8k69yvj1a)" height="48" id="White" style="stroke:#A80036;stroke-width:1.5;" width="66" x="1051" y="912.5"/><ellipse cx="1066" cy="928.5" fill="#ADD1B2" rx="11" ry="11" style="stroke:#A80036;stroke-width:1.0;"/><path d="M1068.3438,924.1719 C1067.4063,923.7344 1066.8125,923.5938 1065.9375,923.5938 C1063.3125,923.5938 1061.3125,925.6719 1061.3125,928.3906 L1061.3125,929.5156 C1061.3125,932.0938 1063.4219,933.9844 1066.3125,933.9844 C1067.5313,933.9844 1068.6875,933.6875 1069.4375,933.1406 C1070.0156,932.7344 1070.3438,932.2813 1070.3438,931.8906 C1070.3438,931.4375 1069.9531,931.0469 1069.4844,931.0469 C1069.2656,931.0469 1069.0625,931.125 1068.875,931.3125 C1068.4219,931.7969 1068.4219,931.7969 1068.2344,931.8906 C1067.8125,932.1563 1067.125,932.2813 1066.3594,932.2813 C1064.3125,932.2813 1063.0156,931.1875 1063.0156,929.4844 L1063.0156,928.3906 C1063.0156,926.6094 1064.2656,925.2969 1066,925.2969 C1066.5781,925.2969 1067.1875,925.4531 1067.6563,925.7031 C1068.1406,925.9844 1068.3125,926.2031 1068.4063,926.6094 C1068.4688,927.0156 1068.5,927.1406 1068.6406,927.2656 C1068.7813,927.4063 1069.0156,927.5156 1069.2344,927.5156 C1069.5,927.5156 1069.7656,927.375 1069.9375,927.1563 C1070.0469,927 1070.0781,926.8125 1070.0781,926.3906 L1070.0781,924.9688 C1070.0781,924.5313 1070.0625,924.4063 1069.9688,924.25 C1069.8125,923.9844 1069.5313,923.8438 1069.2344,923.8438 C1068.9375,923.8438 1068.7344,923.9375 1068.5156,924.25 L1068.3438,924.1719 Z " fill="#000000"/><text fill="#000000" font-family="sans-serif" font-size="12" lengthAdjust="spacingAndGlyphs" textLength="34" x="1080" y="932.6543">White</text><line style="stroke:#A80036;stroke-width:1.5;" x1="1052" x2="1116" y1="944.5" y2="944.5"/><line style="stroke:#A80036;stroke-width:1.5;" x1="1052" x2="1116" y1="952.5" y2="952.5"/><!--MD5=[9bcb9a691789609c473493f37f542ed0]
class Attempt--><rect codeLine="98" fill="#FEFECE" filter="url(#f1qgs8k69yvj1a)" height="60.8047" id="Attempt" style="stroke:#A80036;stroke-width:1.5;" width="308" x="592" y="345"/><ellipse cx="718.25" cy="361" fill="#ADD1B2" rx="11" ry="11" style="stroke:#A80036;stroke-width:1.0;"/><path d="M720.5938,356.6719 C719.6563,356.2344 719.0625,356.0938 718.1875,356.0938 C715.5625,356.0938 713.5625,358.1719 713.5625,360.8906 L713.5625,362.0156 C713.5625,364.5938 715.6719,366.4844 718.5625,366.4844 C719.7813,366.4844 720.9375,366.1875 721.6875,365.6406 C722.2656,365.2344 722.5938,364.7813 722.5938,364.3906 C722.5938,363.9375 722.2031,363.5469 721.7344,363.5469 C721.5156,363.5469 721.3125,363.625 721.125,363.8125 C720.6719,364.2969 720.6719,364.2969 720.4844,364.3906 C720.0625,364.6563 719.375,364.7813 718.6094,364.7813 C716.5625,364.7813 715.2656,363.6875 715.2656,361.9844 L715.2656,360.8906 C715.2656,359.1094 716.5156,357.7969 718.25,357.7969 C718.8281,357.7969 719.4375,357.9531 719.9063,358.2031 C720.3906,358.4844 720.5625,358.7031 720.6563,359.1094 C720.7188,359.5156 720.75,359.6406 720.8906,359.7656 C721.0313,359.9063 721.2656,360.0156 721.4844,360.0156 C721.75,360.0156 722.0156,359.875 722.1875,359.6563 C722.2969,359.5 722.3281,359.3125 722.3281,358.8906 L722.3281,357.4688 C722.3281,357.0313 722.3125,356.9063 722.2188,356.75 C722.0625,356.4844 721.7813,356.3438 721.4844,356.3438 C721.1875,356.3438 720.9844,356.4375 720.7656,356.75 L720.5938,356.6719 Z " fill="#000000"/><text fill="#000000" font-family="sans-serif" font-size="12" lengthAdjust="spacingAndGlyphs" textLength="47" x="738.75" y="365.1543">Attempt</text><line style="stroke:#A80036;stroke-width:1.5;" x1="593" x2="899" y1="377" y2="377"/><line style="stroke:#A80036;stroke-width:1.5;" x1="593" x2="899" y1="385" y2="385"/><ellipse cx="603" cy="396" fill="#84BE84" rx="3" ry="3" style="stroke:#038048;stroke-width:1.0;"/><text fill="#000000" font-family="sans-serif" font-size="11" lengthAdjust="spacingAndGlyphs" text-decoration="underline" textLength="282" x="612" y="399.2104">realizeAll(SecretCombination secretCombination)</text><!--MD5=[e7ac7b8f5c4a475da30b48afbd7f3f65]
link Position to Color--><path codeLine="55" d="M589,1138.193 C589,1138.193 589,1169.389 589,1185.322 " fill="none" id="Position-Color" style="stroke:#A80036;stroke-width:1.0;"/><polygon fill="#A80036" points="589,1198.695,593,1189.695,589,1193.695,585,1189.695,589,1198.695" style="stroke:#A80036;stroke-width:1.0;"/><line style="stroke:#A80036;stroke-width:1.0;" x1="589" x2="589" y1="1193.695" y2="1185.695"/><polygon fill="#FFFFFF" points="589,1126.193,585,1132.193,589,1138.193,593,1132.193,589,1126.193" style="stroke:#A80036;stroke-width:1.0;"/><!--MD5=[28e886d1c90b0b4ab000be4943562f5d]
link Combination to Position--><path codeLine="57" d="M597.4644,858.0684 C597.4644,858.0684 592.89,979.099 591.089,1026.739 " fill="none" id="Combination-Position" style="stroke:#A80036;stroke-width:1.0;"/><polygon fill="#A80036" points="590.592,1039.882,594.9294,1031.0397,590.781,1034.8856,586.9351,1030.7372,590.592,1039.882" style="stroke:#A80036;stroke-width:1.0;"/><line style="stroke:#A80036;stroke-width:1.0;" x1="590.781" x2="591.0835" y1="1034.8856" y2="1026.891"/><polygon fill="#A80036" points="597.918,846.077,593.6941,851.9215,597.4644,858.0684,601.6883,852.2239,597.918,846.077" style="stroke:#A80036;stroke-width:1.0;"/><text fill="#000000" font-family="sans-serif" font-size="13" lengthAdjust="spacingAndGlyphs" textLength="8" x="582.2082" y="1028.8592">4</text><!--MD5=[ed81d3472c9069d2de3c2f5cd308846f]
reverse link Combination to SecretCombination--><path codeLine="60" d="M524.583,859.539 C506.731,875.763 488.603,892.238 473.814,905.679 " fill="none" id="Combination-backto-SecretCombination" style="stroke:#A80036;stroke-width:1.0;"/><polygon fill="none" points="519.926,854.312,539.435,846.041,529.342,864.673,519.926,854.312" style="stroke:#A80036;stroke-width:1.0;"/><!--MD5=[2f10888865b2f559cc24db01ac34cee3]
reverse link Combination to ProposedCombination--><path codeLine="61" d="M680.062,859.052 C699.334,875.434 718.945,892.104 734.916,905.679 " fill="none" id="Combination-backto-ProposedCombination" style="stroke:#A80036;stroke-width:1.0;"/><polygon fill="none" points="675.46,864.328,664.755,846.041,684.527,853.661,675.46,864.328" style="stroke:#A80036;stroke-width:1.0;"/><!--MD5=[055bcf2ca32065d2cf03ce3c5a3f31f6]
link SecretCombination to Checker--><path codeLine="68" d="M413.765,967.09 C398.945,983.191 380.072,1003.696 362.383,1022.914 " fill="none" id="SecretCombination-to-Checker" style="stroke:#A80036;stroke-width:1.0;"/><polygon fill="#A80036" points="358.863,1026.739,367.9011,1022.8259,362.2491,1023.0601,362.0149,1017.4081,358.863,1026.739" style="stroke:#A80036;stroke-width:1.0;"/><!--MD5=[b55787b274c1ca144bd6827491f0c46f]
link SecretCombination to Position--><path codeLine="69" d="M479.8926,975.4738 C479.8926,975.4738 518.133,1012.808 536.45,1030.693 " fill="none" id="SecretCombination-Position" style="stroke:#A80036;stroke-width:1.0;"/><polygon fill="#A80036" points="545.827,1039.848,542.1817,1030.6986,542.2494,1036.355,536.593,1036.4227,545.827,1039.848" style="stroke:#A80036;stroke-width:1.0;"/><line style="stroke:#A80036;stroke-width:1.0;" x1="542.2494" x2="536.5255" y1="1036.355" y2="1030.7665"/><polygon fill="#A80036" points="471.307,967.09,472.8052,974.1438,479.8926,975.4738,478.3944,968.4201,471.307,967.09" style="stroke:#A80036;stroke-width:1.0;"/><text fill="#000000" font-family="sans-serif" font-size="13" lengthAdjust="spacingAndGlyphs" textLength="8" x="530.3088" y="1028.8198">4</text><!--MD5=[4995906f1b64b7c93424b81ebdb4e0cf]
link Result to Success--><path codeLine="88" d="M1035,686.231 C1035,686.231 1035,733.743 1035,752.599 " fill="none" id="Result-Success" style="stroke:#A80036;stroke-width:1.0;"/><polygon fill="#A80036" points="1035,765.67,1039,756.67,1035,760.67,1031,756.67,1035,765.67" style="stroke:#A80036;stroke-width:1.0;"/><line style="stroke:#A80036;stroke-width:1.0;" x1="1035" x2="1035" y1="760.67" y2="752.67"/><polygon fill="#A80036" points="1035,674.231,1031,680.231,1035,686.231,1039,680.231,1035,674.231" style="stroke:#A80036;stroke-width:1.0;"/><text fill="#000000" font-family="sans-serif" font-size="13" lengthAdjust="spacingAndGlyphs" textLength="24" x="1008.075" y="754.9945">1..4</text><!--MD5=[ca1f03a6b09a7e090560224866d0d466]
link Result to SecretCombination--><path codeLine="89" d="M799.152,637.497 C667.939,656.33 522.177,687.092 477,734 C434.037,778.61 432.887,855.871 436.53,900.65 " fill="none" id="Result-to-SecretCombination" style="stroke:#A80036;stroke-width:1.0;"/><polygon fill="#A80036" points="436.97,905.678,440.1703,896.3636,436.5342,900.697,432.2008,897.0609,436.97,905.678" style="stroke:#A80036;stroke-width:1.0;"/><!--MD5=[9b5cddcdba0f3590f5210c2fb5637c7f]
link Result to ProposedCombination--><path codeLine="90" d="M984.532,674.014 C929.062,741.624 841.97,847.778 797.753,901.672 " fill="none" id="Result-to-ProposedCombination" style="stroke:#A80036;stroke-width:1.0;"/><polygon fill="#A80036" points="794.386,905.776,803.1868,901.355,797.5573,901.9104,797.0019,896.2809,794.386,905.776" style="stroke:#A80036;stroke-width:1.0;"/><!--MD5=[e76b95bc47e7e5f2d0d435891dc439c9]
link Result to Combination--><path codeLine="91" d="M883.164,674.107 C826.42,697.131 763.096,722.824 710.745,744.065 " fill="none" id="Result-to-Combination" style="stroke:#A80036;stroke-width:1.0;"/><polygon fill="#A80036" points="706.036,745.976,715.8796,746.2983,710.6691,744.0959,712.8714,738.8854,706.036,745.976" style="stroke:#A80036;stroke-width:1.0;"/><!--MD5=[539f52bf50f0b94aa174ddecfaa90825]
link Result to Black--><path codeLine="92" d="M998.406,674.19 C989.233,692.779 980.677,713.661 976,734 C962.081,794.528 968.429,868.009 973.628,907.37 " fill="none" id="Result-to-Black" style="stroke:#A80036;stroke-width:1.0;"/><polygon fill="#A80036" points="974.319,912.461,977.0718,903.0047,973.6463,907.5065,969.1445,904.081,974.319,912.461" style="stroke:#A80036;stroke-width:1.0;"/><!--MD5=[7510bbc5afce05fb7fa63ed136791b53]
link Result to White--><path codeLine="93" d="M1071.59,674.19 C1080.77,692.779 1089.32,713.661 1094,734 C1107.94,794.599 1097.73,868.053 1090.17,907.39 " fill="none" id="Result-to-White" style="stroke:#A80036;stroke-width:1.0;"/><polygon fill="#A80036" points="1089.17,912.478,1094.8348,904.4213,1090.1368,907.5724,1086.9858,902.8744,1089.17,912.478" style="stroke:#A80036;stroke-width:1.0;"/><!--MD5=[fda509434d84535b42fd5ff2b224cdda]
reverse link Success to Black--><path codeLine="95" d="M1018.48,832.877 C1008.27,858.75 995.562,890.978 987.135,912.341 " fill="none" id="Success-backto-Black" style="stroke:#A80036;stroke-width:1.0;"/><polygon fill="none" points="1011.99,830.253,1025.84,814.216,1025.01,835.39,1011.99,830.253" style="stroke:#A80036;stroke-width:1.0;"/><!--MD5=[4857d16976a5dbb478aa112d62628504]
reverse link Success to White--><path codeLine="96" d="M1049.33,833.259 C1058.08,859.068 1068.94,891.083 1076.15,912.341 " fill="none" id="Success-backto-White" style="stroke:#A80036;stroke-width:1.0;"/><polygon fill="none" points="1042.67,835.405,1042.87,814.216,1055.92,830.909,1042.67,835.405" style="stroke:#A80036;stroke-width:1.0;"/><!--MD5=[213c4a734ac0e7e97a7308e8138ed0fa]
link Mastermind to Game--><path codeLine="111" d="M370,68.24 C370,84.4 370,104.64 370,122.35 " fill="none" id="Mastermind-to-Game" style="stroke:#A80036;stroke-width:1.0;"/><polygon fill="#A80036" points="370,127.76,374,118.76,370,122.76,366,118.76,370,127.76" style="stroke:#A80036;stroke-width:1.0;"/><!--MD5=[f983c79fcb9797e92f2db8cdb4bf532e]
link Game to Attempt--><path codeLine="115" d="M445.5564,207.905 C445.5564,207.905 615.731,302.26 680.914,338.41 " fill="none" id="Game-Attempt" style="stroke:#A80036;stroke-width:1.0;"/><polygon fill="#A80036" points="692.661,344.92,686.7292,337.0578,688.2881,342.4957,682.8502,344.0545,692.661,344.92" style="stroke:#A80036;stroke-width:1.0;"/><line style="stroke:#A80036;stroke-width:1.0;" x1="688.2881" x2="681.2915" y1="342.4957" y2="338.62"/><polygon fill="#A80036" points="435.065,202.08,438.369,208.4896,445.5564,207.905,442.2524,201.4954,435.065,202.08" style="stroke:#A80036;stroke-width:1.0;"/><text fill="#000000" font-family="sans-serif" font-size="13" lengthAdjust="spacingAndGlyphs" textLength="32" x="646.3598" y="334.1667">0..10</text><!--MD5=[7097ac6fc1fcdb4b130fcdb2d13eddb0]
link Game to Console--><path codeLine="116" d="M333.769,202.32 C317.991,218.13 298.526,237.65 278.433,257.79 " fill="none" id="Game-to-Console" style="stroke:#A80036;stroke-width:1.0;"/><polygon fill="#A80036" points="274.675,261.55,283.8617,257.9996,278.2048,258.0088,278.1957,252.3519,274.675,261.55" style="stroke:#A80036;stroke-width:1.0;"/><!--MD5=[946164e5d44554f35a8e38217ba623f1]
link Game to SecretCombination--><path codeLine="117" d="M373.1212,214.1739 C373.1212,214.1739 400.867,610.409 428,846 C429.761,861.286 432.078,877.985 434.269,892.774 " fill="none" id="Game-SecretCombination" style="stroke:#A80036;stroke-width:1.0;"/><polygon fill="#A80036" points="436.225,905.724,438.8351,896.2273,435.4778,900.7802,430.9249,897.4229,436.225,905.724" style="stroke:#A80036;stroke-width:1.0;"/><line style="stroke:#A80036;stroke-width:1.0;" x1="435.4778" x2="434.283" y1="900.7802" y2="892.87"/><polygon fill="#A80036" points="372.33,202.2,368.7343,208.4507,373.1212,214.1739,376.7169,207.9232,372.33,202.2" style="stroke:#A80036;stroke-width:1.0;"/><!--MD5=[c3b6e9141ca66a2df45be84a2594994a]
link Attempt to ProposedCombination--><path codeLine="121" d="M747.7886,418.1489 C747.7886,418.1489 763.691,788.544 768.159,892.613 " fill="none" id="Attempt-ProposedCombination" style="stroke:#A80036;stroke-width:1.0;"/><polygon fill="#A80036" points="768.73,905.912,772.3406,896.7488,768.5157,900.9166,764.348,897.0917,768.73,905.912" style="stroke:#A80036;stroke-width:1.0;"/><line style="stroke:#A80036;stroke-width:1.0;" x1="768.5157" x2="768.172" y1="900.9166" y2="892.924"/><polygon fill="#A80036" points="747.273,406.16,743.5345,412.3263,747.7886,418.1489,751.5271,411.9826,747.273,406.16" style="stroke:#A80036;stroke-width:1.0;"/><text fill="#000000" font-family="sans-serif" font-size="13" lengthAdjust="spacingAndGlyphs" textLength="32" x="733.1681" y="895.1571">0..10</text><!--MD5=[7aba8129d00ecc29b3ea502fe9423d99]
link Attempt to Result--><path codeLine="123" d="M791.9276,413.688 C791.9276,413.688 897.529,499.191 948.56,540.51 " fill="none" id="Attempt-Result" style="stroke:#A80036;stroke-width:1.0;"/><polygon fill="#A80036" points="958.931,548.908,954.4528,540.1361,955.0448,545.7619,949.4191,546.354,958.931,548.908" style="stroke:#A80036;stroke-width:1.0;"/><line style="stroke:#A80036;stroke-width:1.0;" x1="955.0448" x2="948.828" y1="545.7619" y2="540.7275"/><polygon fill="#A80036" points="782.602,406.136,784.7475,413.0205,791.9276,413.688,789.7821,406.8035,782.602,406.136" style="stroke:#A80036;stroke-width:1.0;"/><text fill="#000000" font-family="sans-serif" font-size="13" lengthAdjust="spacingAndGlyphs" textLength="32" x="916.2855" y="537.8881">0..10</text><!--MD5=[51afa1d0aa6803c710cb93658605e5a4]
@startuml
class Mastermind{
{static} + main()
}

class Game{
+ {static} isResumed() : boolean
+ {static} start()
}

class Console{
+ {static} printMastermindHeader()
+ {static} printColorOf(Position position)
+ {static} printAttempt(int i)
+ {static} introProposingCombination() : String
+ {static} printWrongLength()
+ {static} printWrongColors()
+ {static} printWrongColorSingleness()
+ {static} print(ProposedCombination proposedCombination)
+ {static} printArrow()
+ {static} printBlacksWhites(int nBlacks, int nWhites)
+ {static} printPrecedingResults(...)
+ {static} printYouHaveWon()
+ {static} printYouHaveLost()
+ {static} printResume() : String
}

class Combination{
+ {static} int POSITIONS_NUMBER = 4
+ Combination()
+ Combination(String legalString)
+ toString()
+ getColorOfItsPosition(int i) : Color
}

class Position{
+ Position(Color color)
+ Position(char character)
+ getColor() : Color
}

enum Color{
RED
BLUE
YELLOW
GREEN
ORANGE
PURPLE
+ {static} char[] characters = {'r', 'b', 'y', 'g', 'o', 'p'}
+ {static} String charactersAsString = "rbygop"
+ {static} numberOfColorsAvailables() : int
+ toChar() : char
+ {static} getRandomColor() : Color
}

Position o- -> Color

Combination *- -> "4" Position
' Combination - -> Color

Combination <|- - SecretCombination
Combination <|- - ProposedCombination

class SecretCombination{
+ SecretCombination()
}

' SecretCombination - -> Color
SecretCombination - -> Checker
SecretCombination *- -> "4" Position

class ProposedCombination{
+ ProposedCombination(String legalString)
}

class Result{
' + {static} boolean isWinner = false
+ Result()
+ Result(SecretCombination sCombination, ProposedCombination pCombination)
+ numberOfBlacks() : int
+ numberOfWhites() : int
+ isWinner() : boolean
+ {static} setNotToWinner()
}

class Success{
}

Result *- -> "1..4" Success
Result - -> SecretCombination
Result - -> ProposedCombination
Result - -> Combination
Result - -> Black
Result - -> White

Success <|- - Black
Success <|- - White

class Attempt{
+ {static} realizeAll(SecretCombination secretCombination)
' + {static} realize(SecretCombination secretCombination)
}

class Checker{
+ {static} isWrong(String _proposingCombination) : boolean
+ {static} isWrongLength() : boolean
+ {static} isWrongColors() : boolean
+ {static} isWrongColorSingleness() : boolean
+ {static} isWrongColorSingleness(String combination) : boolean
}

Mastermind - -> Game
' Mastermind - -> Console
' Mastermind - -> SecretCombination

Game *- -> "0..10" Attempt
Game - -> Console
Game *- -> SecretCombination

' Attempt - -> Console
' Attempt - -> Checker
Attempt *- -> "0..10" ProposedCombination
' Attempt - -> SecretCombination
Attempt *- -> "0..10" Result

' Checker - -> Console
' Checker - -> Color

' Console - -> Position
' Console - -> ProposedCombination
' Console - -> Result
@enduml

@startuml
class Mastermind{
{static} + main()
}

class Game{
+ {static} isResumed() : boolean
+ {static} start()
}

class Console{
+ {static} printMastermindHeader()
+ {static} printColorOf(Position position)
+ {static} printAttempt(int i)
+ {static} introProposingCombination() : String
+ {static} printWrongLength()
+ {static} printWrongColors()
+ {static} printWrongColorSingleness()
+ {static} print(ProposedCombination proposedCombination)
+ {static} printArrow()
+ {static} printBlacksWhites(int nBlacks, int nWhites)
+ {static} printPrecedingResults(...)
+ {static} printYouHaveWon()
+ {static} printYouHaveLost()
+ {static} printResume() : String
}

class Combination{
+ {static} int POSITIONS_NUMBER = 4
+ Combination()
+ Combination(String legalString)
+ toString()
+ getColorOfItsPosition(int i) : Color
}

class Position{
+ Position(Color color)
+ Position(char character)
+ getColor() : Color
}

enum Color{
RED
BLUE
YELLOW
GREEN
ORANGE
PURPLE
+ {static} char[] characters = {'r', 'b', 'y', 'g', 'o', 'p'}
+ {static} String charactersAsString = "rbygop"
+ {static} numberOfColorsAvailables() : int
+ toChar() : char
+ {static} getRandomColor() : Color
}

Position o- -> Color

Combination *- -> "4" Position

Combination <|- - SecretCombination
Combination <|- - ProposedCombination

class SecretCombination{
+ SecretCombination()
}

SecretCombination - -> Checker
SecretCombination *- -> "4" Position

class ProposedCombination{
+ ProposedCombination(String legalString)
}

class Result{
+ Result()
+ Result(SecretCombination sCombination, ProposedCombination pCombination)
+ numberOfBlacks() : int
+ numberOfWhites() : int
+ isWinner() : boolean
+ {static} setNotToWinner()
}

class Success{
}

Result *- -> "1..4" Success
Result - -> SecretCombination
Result - -> ProposedCombination
Result - -> Combination
Result - -> Black
Result - -> White

Success <|- - Black
Success <|- - White

class Attempt{
+ {static} realizeAll(SecretCombination secretCombination)
}

class Checker{
+ {static} isWrong(String _proposingCombination) : boolean
+ {static} isWrongLength() : boolean
+ {static} isWrongColors() : boolean
+ {static} isWrongColorSingleness() : boolean
+ {static} isWrongColorSingleness(String combination) : boolean
}

Mastermind - -> Game

Game *- -> "0..10" Attempt
Game - -> Console
Game *- -> SecretCombination

Attempt *- -> "0..10" ProposedCombination
Attempt *- -> "0..10" Result


@enduml

PlantUML version 1.2020.22(Sun Dec 06 09:36:27 UTC 2020)
(GPL source distribution)
Java Runtime: Java(TM) SE Runtime Environment
JVM: Java HotSpot(TM) 64-Bit Server VM
Default Encoding: UTF-8
Language: en
Country: US
--></g></svg>